<?xml version="1.0" standalone="no"?>
<!DOCTYPE svg PUBLIC "-//W3C//DTD SVG 20010904//EN"
 "http://www.w3.org/TR/2001/REC-SVG-20010904/DTD/svg10.dtd">
<svg version="1.0" xmlns="http://www.w3.org/2000/svg"
 width="2000.000000pt" height="2000.000000pt" viewBox="0 0 2000.000000 2000.000000"
 preserveAspectRatio="xMidYMid meet">

<g transform="translate(0.000000,2000.000000) scale(0.100000,-0.100000)"
fill="#000000" stroke="none">
<path d="M9950 16481 c-89 -180 -107 -210 -129 -214 -14 -3 -117 -18 -228 -33
-112 -16 -203 -31 -203 -34 0 -4 74 -79 164 -168 l163 -162 -39 -226 c-21
-125 -37 -229 -35 -231 2 -1 96 46 209 105 l205 109 204 -108 c112 -60 207
-109 210 -109 3 0 -13 105 -34 232 l-40 233 168 162 c93 89 167 164 165 166
-3 2 -95 16 -205 31 -110 16 -213 31 -228 33 -25 5 -39 27 -133 214 -57 115
-105 209 -107 209 -1 0 -49 -94 -107 -209z"/>
<path d="M7266 15691 c-53 -107 -97 -196 -99 -197 -2 -2 -97 -17 -212 -34
-115 -17 -210 -32 -212 -34 -2 -1 66 -71 151 -154 l155 -151 -36 -206 c-20
-113 -33 -208 -30 -211 3 -3 90 38 194 92 l188 98 190 -101 c105 -55 191 -100
192 -99 1 1 -14 98 -34 216 l-36 215 159 153 c87 83 155 152 151 152 -4 0 -97
14 -207 30 -110 17 -204 30 -210 30 -5 0 -54 89 -109 198 l-99 197 -96 -194z"/>
<path d="M12655 15690 c-53 -107 -98 -196 -99 -197 -2 -2 -96 -16 -211 -33
-115 -17 -210 -32 -212 -33 -2 -2 66 -72 151 -155 l154 -151 -35 -206 c-20
-113 -33 -208 -30 -212 3 -3 86 37 184 88 98 52 185 95 193 96 8 1 98 -42 200
-96 102 -54 186 -98 187 -97 2 1 -14 99 -34 216 l-37 214 159 153 c87 84 156
153 153 153 -31 0 -424 62 -430 68 -4 4 -50 93 -101 197 l-94 190 -98 -195z"/>
<path d="M8412 14098 c-8 -8 -12 -67 -12 -198 0 -166 2 -189 18 -202 9 -9 287
-192 617 -408 784 -514 892 -584 880 -572 -175 176 -1463 1392 -1475 1392 -9
0 -21 -5 -28 -12z"/>
<path d="M11557 14013 c-56 -54 -382 -365 -725 -692 -342 -327 -622 -595 -622
-597 0 -2 64 38 143 89 949 621 1344 882 1355 895 15 20 17 354 2 383 -20 36
-49 21 -153 -78z"/>
<path d="M5885 13799 c-44 -88 -83 -163 -86 -165 -7 -4 -329 -54 -351 -54 -7
0 47 -60 120 -133 l133 -133 -30 -174 c-17 -95 -29 -175 -27 -177 2 -2 73 33
157 78 85 45 159 82 164 82 6 0 79 -37 164 -81 85 -45 156 -80 159 -78 2 3
-10 83 -27 178 l-30 173 132 133 c72 72 125 132 117 132 -8 0 -87 11 -175 25
-88 13 -163 25 -167 25 -5 0 -45 74 -91 165 l-82 165 -80 -161z"/>
<path d="M14065 13791 l-79 -159 -115 -18 c-64 -9 -147 -22 -185 -28 l-69 -11
133 -128 133 -128 -30 -177 c-17 -97 -29 -178 -28 -180 2 -2 75 34 164 80
l160 83 161 -83 c131 -68 160 -80 160 -65 0 10 -13 91 -29 181 l-28 162 135
128 135 128 -154 22 c-85 13 -168 25 -185 28 -28 5 -36 18 -109 165 -44 87
-82 159 -85 159 -3 0 -41 -72 -85 -159z"/>
<path d="M7871 13796 c-8 -9 -11 -78 -9 -226 l3 -212 1010 -438 c555 -242
1011 -438 1012 -436 5 5 -1981 1326 -1993 1326 -7 0 -17 -6 -23 -14z"/>
<path d="M11212 13146 c-849 -567 -1057 -708 -996 -673 6 3 463 202 1015 442
552 240 1010 441 1017 447 9 8 12 63 12 214 0 171 -2 205 -16 218 -8 9 -21 16
-27 15 -7 0 -459 -299 -1005 -663z"/>
<path d="M7303 13410 c-12 -5 -26 -18 -32 -29 -8 -14 -11 -605 -11 -1956 l0
-1937 23 -19 c12 -11 51 -33 87 -48 196 -84 586 -253 1478 -640 545 -237 1003
-431 1016 -431 13 0 34 9 47 19 l24 19 3 1940 2 1941 -22 24 c-16 17 -390 184
-1148 512 -619 268 -1191 516 -1272 551 -152 67 -159 68 -195 54z"/>
<path d="M12720 13400 c-325 -134 -2518 -1094 -2527 -1107 -10 -13 -13 -421
-13 -1959 l0 -1943 27 -21 c20 -15 37 -20 58 -17 27 5 2447 1049 2535 1094 19
10 40 29 47 43 10 20 12 416 10 1953 l-2 1929 -28 24 c-33 28 -47 29 -107 4z"/>
<path d="M4670 10635 l0 -225 165 0 165 0 0 35 0 35 -125 0 -125 0 0 60 0 60
105 0 105 0 0 35 0 35 -105 0 -105 0 0 60 0 60 120 0 120 0 0 35 0 35 -160 0
-160 0 0 -225z"/>
<path d="M5144 10841 c-54 -25 -74 -55 -74 -112 0 -63 31 -93 124 -120 112
-32 136 -45 136 -73 0 -68 -111 -87 -211 -36 l-37 19 -12 -29 c-15 -37 -10
-45 47 -64 62 -21 175 -21 220 1 43 20 73 66 73 113 0 65 -37 96 -150 125 -82
21 -110 39 -110 70 0 56 74 78 163 47 l56 -19 11 31 c12 34 6 40 -50 56 -55
16 -141 12 -186 -9z"/>
<path d="M5437 10853 c-4 -3 -7 -19 -7 -35 l0 -28 75 0 75 0 0 -190 0 -190 40
0 40 0 0 190 0 190 75 0 75 0 0 35 0 35 -183 0 c-101 0 -187 -3 -190 -7z"/>
<path d="M5880 10635 l0 -227 133 4 c119 3 138 6 182 29 30 15 62 42 80 68 27
39 30 50 30 125 0 73 -3 87 -27 123 -19 28 -45 50 -85 69 -52 26 -70 29 -185
32 l-128 4 0 -227z m267 135 c111 -50 113 -217 3 -272 -24 -13 -59 -18 -112
-18 l-78 0 0 155 0 155 73 0 c49 0 85 -6 114 -20z"/>
<path d="M13865 10767 c-17 -8 -37 -22 -45 -31 -12 -16 -11 -20 10 -36 23 -17
25 -17 54 1 65 40 146 15 146 -44 0 -27 -15 -47 -105 -135 -77 -75 -105 -109
-105 -127 l0 -25 150 0 150 0 0 30 0 30 -97 0 -98 0 77 78 c88 89 98 106 98
161 0 31 -7 49 -29 73 -27 30 -34 33 -102 35 -47 2 -85 -2 -104 -10z"/>
<path d="M14249 10757 c-54 -36 -80 -93 -80 -177 -1 -131 62 -210 166 -210
105 0 165 76 165 210 0 87 -24 140 -79 177 -47 32 -125 32 -172 0z m141 -57
c29 -29 40 -63 40 -125 0 -92 -34 -145 -93 -145 -62 0 -97 53 -97 145 0 94 34
145 95 145 22 0 43 -8 55 -20z"/>
<path d="M14586 10757 c-49 -27 -52 -37 -20 -60 24 -18 25 -18 51 2 32 26 104
28 127 5 9 -8 16 -31 16 -51 0 -32 -10 -45 -105 -136 -75 -71 -105 -107 -105
-124 l0 -23 150 0 150 0 0 30 0 30 -90 0 c-49 0 -90 4 -90 9 0 5 29 36 65 67
64 57 105 120 105 163 0 35 -28 79 -60 96 -45 23 -147 19 -194 -8z"/>
<path d="M14988 10650 c-74 -98 -98 -137 -98 -160 l0 -30 110 0 110 0 0 -45
c0 -45 0 -45 35 -45 35 0 35 0 35 44 0 44 0 45 38 48 34 3 37 6 37 33 0 27 -3
30 -37 33 -37 3 -38 4 -38 43 0 38 -1 39 -35 39 -34 0 -35 -1 -35 -40 l0 -40
-66 0 c-52 0 -64 3 -57 13 101 130 173 226 173 231 0 3 -17 6 -37 5 -37 0 -41
-5 -135 -129z"/>
<path d="M6372 10498 c-7 -7 -12 -24 -12 -38 0 -34 17 -50 52 -50 27 0 48 23
48 54 0 37 -61 61 -88 34z"/>
<path d="M7112 7289 c-291 -34 -519 -189 -637 -434 -61 -126 -79 -216 -72
-368 5 -139 21 -206 74 -313 122 -247 381 -409 687 -430 284 -20 549 85 719
285 57 66 130 209 154 301 26 98 23 292 -5 393 -89 313 -353 529 -694 566
-108 12 -121 12 -226 0z m197 -349 c124 -23 226 -105 284 -228 27 -57 32 -81
35 -165 7 -158 -31 -261 -130 -352 -119 -110 -300 -136 -452 -64 -154 72 -248
270 -219 459 39 247 242 396 482 350z"/>
<path d="M8922 7289 c-291 -34 -519 -189 -637 -434 -61 -126 -79 -216 -72
-368 5 -139 21 -206 74 -313 122 -247 381 -409 687 -430 284 -20 549 85 719
285 57 66 130 209 154 301 26 98 23 292 -5 393 -89 313 -353 529 -694 566
-108 12 -121 12 -226 0z m197 -349 c124 -23 226 -105 284 -228 27 -57 32 -81
35 -165 7 -158 -31 -261 -130 -352 -119 -110 -300 -136 -452 -64 -154 72 -248
270 -219 459 39 247 242 396 482 350z"/>
<path d="M4830 6520 l0 -752 493 5 c545 5 568 7 703 71 94 45 147 94 186 174
31 62 33 74 33 167 0 93 -2 105 -33 167 -37 76 -97 134 -178 174 l-54 26 53
39 c67 50 112 117 133 199 42 167 -35 325 -199 405 -130 63 -160 67 -674 72
l-463 5 0 -752z m822 428 c58 -17 98 -68 98 -124 0 -61 -22 -99 -73 -126 -38
-21 -58 -23 -234 -26 l-193 -4 0 146 0 146 181 0 c110 0 197 -5 221 -12z m63
-582 c59 -18 92 -49 105 -98 21 -75 -21 -149 -100 -178 -23 -8 -111 -15 -252
-18 l-218 -4 0 156 0 156 208 0 c153 0 222 -4 257 -14z"/>
<path d="M10097 7263 c-4 -3 -7 -341 -7 -750 l0 -743 210 0 210 0 0 186 0 187
76 84 c42 46 80 82 84 81 4 -2 102 -122 217 -268 l209 -265 242 -3 c133 -1
242 0 242 3 0 4 -142 190 -315 415 -173 225 -315 411 -315 415 0 4 132 149
293 323 161 174 296 323 301 330 6 9 -41 12 -221 12 l-228 0 -290 -312 -290
-311 -3 311 -2 312 -203 0 c-112 0 -207 -3 -210 -7z"/>
<path d="M12330 6520 l0 -752 493 5 c463 4 497 5 574 25 153 40 263 114 312
211 12 22 26 71 33 110 29 170 -48 323 -202 401 l-62 31 23 16 c128 85 191
222 167 368 -25 157 -144 264 -348 310 -63 15 -148 18 -532 22 l-458 5 0 -752z
m835 421 c55 -25 76 -52 82 -104 7 -62 -18 -112 -71 -140 -38 -20 -55 -22
-236 -22 l-195 0 -3 143 -3 142 193 0 c166 0 199 -3 233 -19z m79 -585 c52
-26 76 -68 76 -133 0 -64 -29 -103 -98 -130 -40 -15 -78 -18 -262 -18 l-215 0
-3 153 -3 153 233 -3 c206 -3 238 -5 272 -22z"/>
<path d="M13970 6520 l0 -750 600 0 600 0 0 165 0 165 -390 0 -390 0 0 135 0
135 330 0 330 0 0 160 0 160 -330 0 -330 0 0 125 0 125 375 0 375 0 0 165 0
165 -585 0 -585 0 0 -750z"/>
</g>
</svg>
